<svg id="Capa_1" data-name="Capa 1" xmlns="http://www.w3.org/2000/svg" viewBox="0 0 606.14 606.14"><defs><style>.cls-1{fill:#3b5998;}.cls-2{fill:#fff;}</style></defs><circle class="cls-1" cx="303.07" cy="303.07" r="303.07"/><path class="cls-2" d="M259.08,652.06h73.51a1.76,1.76,0,0,0,1.76-1.76V422.73A1.75,1.75,0,0,1,336.1,421h73.52a1.75,1.75,0,0,0,1.75-1.76v-67a1.75,1.75,0,0,0-1.75-1.76h-75a.27.27,0,0,1-.28-.28V296.43A34.42,34.42,0,0,1,368.77,262h40.85a1.75,1.75,0,0,0,1.75-1.76v-57A13.37,13.37,0,0,0,398,189.89H351.43c-11.54,0-48.17-3.42-78.17,40.46a81.56,81.56,0,0,0-14,45.09l-.88,68.92H214a1.75,1.75,0,0,0-1.75,1.75v73.11A1.76,1.76,0,0,0,214,421h42.38a1.75,1.75,0,0,1,1.75,1.76l-.81,227.56A1.76,1.76,0,0,0,259.08,652.06Z" transform="translate(-8.74 -117.87)"/></svg>