<svg id="Capa_2" data-name="Capa 2" xmlns="http://www.w3.org/2000/svg" viewBox="0 0 595.07 529.64"><defs><style>.cls-1{fill:#fff;}</style></defs><rect class="cls-1" y="208.35" width="99.55" height="321.29"/><path class="cls-1" d="M172.66,366.56v319.2H480.38c47.51,0,129-129,129-181.57V377.67A40.35,40.35,0,0,0,569,337.32H402.32A11.31,11.31,0,0,1,391,326V300c0-16.94,9.05-22.06,9.05-22.06l.27-.14c13.28-6.74,21.23-20.77,21.23-35.66V212.88c0-1.09-.21-4.25-.72-8.36a67.22,67.22,0,0,0-18.89-38.78h0c-10.94-7.27-14.62-9.22-30.68-9.5l-11.07-.11c-16.4,1.49-28.93,7.47-40.43,20.23l-129,143.19A70.19,70.19,0,0,0,172.66,366.56Z" transform="translate(-14.28 -156.13)"/></svg>