<svg id="Capa_1" data-name="Capa 1" xmlns="http://www.w3.org/2000/svg" viewBox="0 0 606.14 606.14"><defs><style>.cls-1{fill:#1da1f2;}.cls-2{fill:#fff;}</style></defs><circle class="cls-1" cx="303.07" cy="303.07" r="303.07"/><path class="cls-2" d="M245.08,567.18c135.75,0,210-112.51,210-210.07q0-4.8-.21-9.55a150,150,0,0,0,36.82-38.23A147.39,147.39,0,0,1,449.29,321a74.09,74.09,0,0,0,32.46-40.84A147.9,147.9,0,0,1,434.88,298a73.88,73.88,0,0,0-125.77,67.33A209.55,209.55,0,0,1,157,288.23a73.93,73.93,0,0,0,22.85,98.57,73.31,73.31,0,0,1-33.43-9.24c0,.31,0,.61,0,.94a73.85,73.85,0,0,0,59.21,72.38,73.65,73.65,0,0,1-33.33,1.27,73.9,73.9,0,0,0,68.95,51.28A148.06,148.06,0,0,1,149.55,535a152.22,152.22,0,0,1-17.6-1,208.86,208.86,0,0,0,113.13,33.16" transform="translate(-8.52 -118.03)"/></svg>