<svg id="Capa_2" data-name="Capa 2" xmlns="http://www.w3.org/2000/svg" viewBox="0 0 595.07 529.64"><defs><style>.cls-1{fill:#fff;}</style></defs><rect class="cls-1" x="509.79" y="156.13" width="99.55" height="321.29" transform="translate(1104.85 477.41) rotate(180)"/><path class="cls-1" d="M451,475.33V156.13H143.25c-47.52,0-129,129-129,181.57V464.22a40.35,40.35,0,0,0,40.35,40.35H221.31a11.31,11.31,0,0,1,11.31,11.31v26c0,16.94-9.05,22.06-9.05,22.06l-.27.13c-13.28,6.75-21.23,20.78-21.23,35.67V629c0,1.09.21,4.25.72,8.36a67.22,67.22,0,0,0,18.89,38.78h0c10.94,7.27,14.62,9.22,30.68,9.5l11.07.11c16.4-1.49,28.93-7.47,40.43-20.23L432.91,522.34A70.23,70.23,0,0,0,451,475.33Z" transform="translate(-14.28 -156.13)"/></svg>