<svg id="Capa_1" data-name="Capa 1" xmlns="http://www.w3.org/2000/svg" viewBox="0 0 606.14 606.14"><defs><style>.cls-1{fill:#25d366;}.cls-2{fill:none;stroke:#fff;stroke-miterlimit:10;stroke-width:17px;}.cls-3{fill:#fff;}</style></defs><circle class="cls-1" cx="303.07" cy="303.07" r="303.07"/><path class="cls-2" d="M162.76,526.36,137,595.74,203,569.92a22.56,22.56,0,0,1,19.69,1.54,173.81,173.81,0,0,0,88.77,24.28c95.08.06,174.58-79.22,174.75-174.3A174.64,174.64,0,1,0,137,421.1c0,27.65,17.46,70.4,25.31,88.24A22.64,22.64,0,0,1,162.76,526.36Z" transform="translate(-11.17 -112.65)"/><path class="cls-3" d="M217,346.6c-11.4,11.37-11.46,19.45-8.71,33.16.95,4.75,1.61,6.61,4.64,12.87a309.34,309.34,0,0,0,17.58,31.06c14.16,21.94,56.73,57.69,61.84,60.58,30.74,17.46,55.64,26.09,76.19,26.42,12.86.23,19.35-3.43,26.89-9.69a146.69,146.69,0,0,0,15.44-15c8.76-13.22-2.69-20.15-14.26-26.49-18-9.87-23.57-16.65-31.62-5.65l-4.75,6.51c-3.79,4.84-8.85,7.94-13.63,8.38a16.39,16.39,0,0,1-7.82-1.38c-5.32-2.33-20.73-13-45.1-31.28A45,45,0,0,1,290,433c-35.18-33.22-32.57-38.49-19.6-51.46,9.6-9.6-2.46-23.5-8.76-31.24-7.88-9.69-10.63-12.66-15-16.52C239,327.13,228.38,334.43,217,346.6Z" transform="translate(-11.17 -112.65)"/></svg>