<svg id="Capa_1" data-name="Capa 1" xmlns="http://www.w3.org/2000/svg" viewBox="0 0 1920 1080"><defs><style>.cls-1{fill:#15202b;}</style></defs><path class="cls-1" d="M1920,0H1644c-23.83,0,67.11,143.3,85,172.81s26.67,63.6,49.62,82.62c23.17,18.8,60.55,22.73,88.09,8.52,21.53-10.84,37.14-32.34,53.26-56.43Z"/><path class="cls-1" d="M180.69,16c-3.48-5.32-7.16-10.71-11-16H0V239.58c29.81,6.69,62.69,6.06,98.05,9.37,49.68,4.92,104.53,18.2,127.4-2.71,22.87-20.66,14-75.5,3-118.79C217.09,83.92,203.56,51.7,180.69,16Z"/><path class="cls-1" d="M0,824l64,26.7c64,26.3,192,80.3,320,80,128,.3,256-53.7,384-64,128-10.7,256,21.3,384,48C1280,941,1408,963,1536,968s256-5,320-10.7l64-5.3v128H0Z"/></svg>