<svg id="Capa_2" data-name="Capa 2" xmlns="http://www.w3.org/2000/svg" viewBox="0 0 703.37 961.88"><defs><style>.cls-1,.cls-3{fill:#2f4e53;}.cls-2{fill:#10442e;stroke:#10442e;}.cls-2,.cls-3,.cls-4,.cls-5,.cls-6,.cls-7,.cls-8{stroke-miterlimit:10;}.cls-3{stroke:#2f4e53;}.cls-4{fill:#2f7364;stroke:#2f7364;}.cls-5{fill:#125237;stroke:#125237;}.cls-6{fill:#46ba79;stroke:#46ba79;}.cls-7{fill:#21ac75;stroke:#21ac75;}.cls-8{fill:#1d6a46;stroke:#1d6a46;}</style></defs><polygon class="cls-1" points="337.68 2.96 608.91 470.8 513.51 470.8 642.77 701.61 559.67 701.61 702.52 961.38 0.85 961.38 144.21 701.61 61.12 701.61 190.37 467.72 94.97 467.72 324.16 27.6 337.68 2.96"/><polygon class="cls-2" points="334.78 961.38 122.93 589.76 61.12 701.61 144.21 701.61 0.85 961.38 334.78 961.38"/><polygon class="cls-3" points="587.26 602.5 357.55 961.38 702.52 961.38 559.67 701.61 642.77 701.61 587.26 602.5"/><polygon class="cls-4" points="343.43 961.38 307.32 378.47 513.51 470.8 587.26 602.5 357.55 961.38 343.43 961.38"/><polygon class="cls-5" points="307.32 378.47 156.67 355.29 94.97 467.72 190.37 467.72 122.93 589.76 334.78 961.38 343.43 961.38 307.32 378.47"/><path class="cls-6" d="M1074.4,268.6,948.48,61.12a.63.63,0,0,0-1.16.27L944.5,90.5,915.7,435.72a.63.63,0,0,0,1.08.48l157.54-166.84A.63.63,0,0,0,1074.4,268.6Z" transform="translate(-608.23 -59.04)"/><polygon class="cls-7" points="608.91 470.8 466.42 209.97 307.32 378.47 513.51 470.8 608.91 470.8"/><polygon class="cls-8" points="307.32 378.47 338.27 2.46 156.67 355.29 307.32 378.47"/></svg>